<svg enable-background="new 0 0 512 512" viewBox="0 0 512 512" xmlns="http://www.w3.org/2000/svg"><path d="m507.49 101.721-155.279 154.279 155.279 154.279c2.807-5.867 4.51-12.353 4.51-19.279v-270c0-6.927-1.703-13.412-4.51-19.279z"/><path d="m467 76h-422c-6.927 0-13.412 1.703-19.279 4.51l198.463 197.463c17.548 17.548 46.084 17.548 63.632 0l198.463-197.463c-5.867-2.807-12.352-4.51-19.279-4.51z"/><path d="m4.51 101.721c-2.807 5.867-4.51 12.352-4.51 19.279v270c0 6.927 1.703 13.413 4.51 19.279l155.279-154.279z"/><path d="m331 277.211-21.973 21.973c-29.239 29.239-76.816 29.239-106.055 0l-21.972-21.973-155.279 154.279c5.867 2.807 12.352 4.51 19.279 4.51h422c6.927 0 13.412-1.703 19.279-4.51z"/></svg>