<svg enable-background="new 0 0 512 512" height="512" viewBox="0 0 512 512" width="512" xmlns="http://www.w3.org/2000/svg"><g fill="#2451af"><path d="m256 0c-141.167 0-256 114.833-256 256s114.833 256 256 256 256-114.853 256-256-114.833-256-256-256zm0 472.341c-119.275 0-216.341-97.046-216.341-216.341s97.066-216.341 216.341-216.341c119.295 0 216.341 97.046 216.341 216.341s-97.066 216.341-216.341 216.341z" xmlns="http://www.w3.org/2000/svg"/><path d="m369.227 283.365-99.148-99.148c-7.734-7.694-20.226-7.694-27.96 0l-99.148 99.148c-6.365 7.416-6.365 18.382 0 25.798 7.119 8.309 19.651 9.28 27.96 2.161l85.069-85.068 85.267 85.069c7.734 7.694 20.226 7.694 27.96 0 7.694-7.734 7.694-20.227 0-27.96z" xmlns="http://www.w3.org/2000/svg"/></g></svg>